<?xml version="1.0" encoding="UTF-8" standalone="no"?>
<!-- Created with Inkscape (http://www.inkscape.org/) -->

<svg
   xmlns:dc="http://purl.org/dc/elements/1.1/"
   xmlns:cc="http://creativecommons.org/ns#"
   xmlns:rdf="http://www.w3.org/1999/02/22-rdf-syntax-ns#"
   xmlns:svg="http://www.w3.org/2000/svg"
   xmlns="http://www.w3.org/2000/svg"
   xmlns:sodipodi="http://sodipodi.sourceforge.net/DTD/sodipodi-0.dtd"
   xmlns:inkscape="http://www.inkscape.org/namespaces/inkscape"
   width="744.09448819"
   height="1052.3622047"
   id="svg2"
   version="1.1"
   inkscape:version="0.48.2 r9819"
   sodipodi:docname="New document 1">
  <defs
     id="defs4" />
  <sodipodi:namedview
     id="base"
     pagecolor="#ffffff"
     bordercolor="#666666"
     borderopacity="1.0"
     inkscape:pageopacity="0.0"
     inkscape:pageshadow="2"
     inkscape:zoom="1"
     inkscape:cx="335.56686"
     inkscape:cy="511.26209"
     inkscape:document-units="px"
     inkscape:current-layer="layer1"
     showgrid="false"
     inkscape:window-width="854"
     inkscape:window-height="801"
     inkscape:window-x="32"
     inkscape:window-y="0"
     inkscape:window-maximized="0" />
  <metadata
     id="metadata7">
    <rdf:RDF>
      <cc:Work
         rdf:about="">
        <dc:format>image/svg+xml</dc:format>
        <dc:type
           rdf:resource="http://purl.org/dc/dcmitype/StillImage" />
        <dc:title></dc:title>
      </cc:Work>
    </rdf:RDF>
  </metadata>
  <g
     inkscape:label="Layer 1"
     inkscape:groupmode="layer"
     id="layer1">
    <path
       sodipodi:type="star"
       style="fill:#008000"
       id="path3360"
       sodipodi:sides="5"
       sodipodi:cx="357.14286"
       sodipodi:cy="486.6479"
       sodipodi:r1="362.36187"
       sodipodi:r2="181.18093"
       sodipodi:arg1="-0.30429597"
       sodipodi:arg2="0.32402256"
       inkscape:flatsided="false"
       inkscape:rounded="0"
       inkscape:randomized="0"
       d="M 702.85715,378.07646 528.89555,544.3327 567.23201,781.8913 355.35584,667.82 141.2708,777.68979 184.28572,540.9336 13.637426,371.27826 252.09828,339.02619 360.71688,124.30364 465.07887,341.12695 z"
       inkscape:transform-center-x="-1.1044344"
       inkscape:transform-center-y="-33.550417" />
    <path
       sodipodi:type="star"
       style="fill:#ffff00"
       id="path3362"
       sodipodi:sides="5"
       sodipodi:cx="131.42857"
       sodipodi:cy="206.6479"
       sodipodi:r1="334.42001"
       sodipodi:r2="167.20999"
       sodipodi:arg1="0.348771"
       sodipodi:arg2="0.97708953"
       inkscape:flatsided="false"
       inkscape:rounded="0"
       inkscape:randomized="0"
       d="M 445.7143,320.93362 224.97208,345.24369 119.85603,540.86762 28.522679,338.44152 -190.00938,298.92133 -25.714277,149.50505 -55.658463,-70.543702 137.21485,39.538058 337.24038,-56.939359 292.14754,160.51119 z"
       inkscape:transform-center-x="3.5761135"
       inkscape:transform-center-y="28.514056"
       transform="translate(231.42857,268.57143)" />
    <path
       sodipodi:type="arc"
       style="fill:#008000"
       id="path3364"
       sodipodi:cx="378.57144"
       sodipodi:cy="479.50504"
       sodipodi:rx="155.71429"
       sodipodi:ry="144.28571"
       d="m 534.28574,479.50504 a 155.71429,144.28571 0 1 1 -311.42859,0 155.71429,144.28571 0 1 1 311.42859,0 z"
       transform="matrix(1.1265503,0,0,1.2446353,-59.042643,-109.74404)" />
    <path
       sodipodi:type="arc"
       style="fill:#008000"
       id="path3366"
       sodipodi:cx="364.28571"
       sodipodi:cy="410.93362"
       sodipodi:rx="4.2857141"
       sodipodi:ry="10"
       d="m 368.57142,410.93362 a 4.2857141,10 0 1 1 -8.57143,0 4.2857141,10 0 1 1 8.57143,0 z" />
    <path
       sodipodi:type="arc"
       style="fill:#2b0000"
       id="path3368"
       sodipodi:cx="298.57144"
       sodipodi:cy="386.64789"
       sodipodi:rx="24.285715"
       sodipodi:ry="20"
       d="m 322.85716,386.64789 a 24.285715,20 0 1 1 -48.57143,0 24.285715,20 0 1 1 48.57143,0 z"
       transform="translate(25.015348,6.6707594)" />
    <path
       sodipodi:type="arc"
       style="fill:#2b0000"
       id="path3370"
       sodipodi:cx="365.71429"
       sodipodi:cy="396.64789"
       sodipodi:rx="11.428572"
       sodipodi:ry="12.857142"
       d="m 377.14287,396.64789 a 11.428572,12.857142 0 1 1 -22.85715,0 11.428572,12.857142 0 1 1 22.85715,0 z"
       transform="translate(25.015348,6.6707594)" />
    <path
       sodipodi:type="arc"
       style="fill:#2b0000"
       id="path3374"
       sodipodi:cx="465.71429"
       sodipodi:cy="430.93362"
       sodipodi:rx="5.7142859"
       sodipodi:ry="12.857142"
       d="m 471.42858,430.93362 a 5.7142859,12.857142 0 1 1 -11.42857,0 5.7142859,12.857142 0 1 1 11.42857,0 z"
       transform="translate(-52.12751,-19.043527)" />
    <path
       sodipodi:type="arc"
       style="fill:#2b0000"
       id="path3376"
       sodipodi:cx="337.14285"
       sodipodi:cy="390.93362"
       sodipodi:rx="14.285714"
       sodipodi:ry="15.714286"
       d="m 351.42857,390.93362 a 14.285714,15.714286 0 1 1 -28.57143,0 14.285714,15.714286 0 1 1 28.57143,0 z"
       transform="translate(25.015348,6.6707594)" />
    <path
       sodipodi:type="arc"
       style="fill:#2b0000"
       id="path3378"
       sodipodi:cx="378.57144"
       sodipodi:cy="396.64789"
       sodipodi:rx="7.1428571"
       sodipodi:ry="7.1428571"
       d="m 385.7143,396.64789 a 7.1428571,7.1428571 0 1 1 -14.28572,0 7.1428571,7.1428571 0 1 1 14.28572,0 z"
       transform="translate(56.443919,29.527902)" />
    <path
       sodipodi:type="arc"
       style="fill:#2b0000"
       id="path3380"
       sodipodi:cx="358.55331"
       sodipodi:cy="506.19376"
       sodipodi:rx="49.19685"
       sodipodi:ry="80.04911"
       d="m 407.75016,506.19376 a 49.19685,80.04911 0 1 1 -98.3937,0 49.19685,80.04911 0 1 1 98.3937,0 z"
       transform="translate(10.006139,1.6676899)" />
    <path
       sodipodi:type="arc"
       style="fill:#2b0000"
       id="path3382"
       sodipodi:cx="356.05179"
       sodipodi:cy="511.19684"
       sodipodi:rx="5.8369145"
       sodipodi:ry="1.6676898"
       d="m 361.8887,511.19684 a 5.8369145,1.6676898 0 1 1 -11.67383,0 5.8369145,1.6676898 0 1 1 11.67383,0 z" />
  </g>
</svg>
